<svg xmlns="http://www.w3.org/2000/svg" viewBox="0 0 170 170"><title>Zoller_Icon_Storage_Collected_List_Add</title><g id="Icons"><path d="M166.88,22.05H148.13V3.14A3.19,3.19,0,0,0,145,0h-6.5a3.19,3.19,0,0,0-3.15,3.15V22.05H116.15A3.18,3.18,0,0,0,113,25.2v6.57a3.2,3.2,0,0,0,3.16,3.15h19.14V53.7a3.19,3.19,0,0,0,3.15,3.15H145a3.19,3.19,0,0,0,3.15-3.15V34.92h18.67A3.19,3.19,0,0,0,170,31.77V25.2A3.09,3.09,0,0,0,166.88,22.05Z"/><rect x="94.83" y="138.09" height="6.83"/><path d="M45.71,62.1H9.34A9.35,9.35,0,0,0,0,71.45v89.22A9.34,9.34,0,0,0,9.34,170H65.18a9.34,9.34,0,0,0,9.34-9.34V90.91Zm22,95.63a5.45,5.45,0,0,1-5.45,5.45h-50a5.45,5.45,0,0,1-5.45-5.45V74.39a5.45,5.45,0,0,1,5.45-5.45h30.6v17.8a7,7,0,0,0,7,7h17.8Z"/><circle cx="20.44" cy="122.28" r="6.03"/><rect x="32.8" y="117.5" width="24.76" height="9.56"/><circle cx="20.44" cy="144.51" r="6.03"/><rect x="32.8" y="139.73" width="24.76" height="9.56"/><path d="M86.34,37H50a9.34,9.34,0,0,0-9,6.83H83.51v17.8a7,7,0,0,0,7,7h17.8v64a5.45,5.45,0,0,1-5.45,5.45h-2.31v6.83h5.25a9.34,9.34,0,0,0,9.34-9.34V65.82Z"/><path d="M66,49.56H29.66a9.35,9.35,0,0,0-9,6.83H63.2V74.2a7,7,0,0,0,7,7H88v64a5.45,5.45,0,0,1-5.45,5.45H80.23v6.83h5.26a9.35,9.35,0,0,0,9.34-9.35V78.37Z"/></g></svg>