<svg xmlns="http://www.w3.org/2000/svg" xmlns:xlink="http://www.w3.org/1999/xlink" width="52.589" height="52.589" viewBox="0 0 52.589 52.589">
  <defs>
    <radialGradient id="radial-gradient" cx="0.5" cy="0.5" r="0.5" gradientUnits="objectBoundingBox">
      <stop offset="0" stop-color="#323c46"/>
      <stop offset="1" stop-color="#141e28"/>
    </radialGradient>
  </defs>
  <g id="Pfad_6697" data-name="Pfad 6697" transform="translate(0 0)" fill="url(#radial-gradient)">
    <path d="M 26.29474639892578 50.58949661254883 C 23.01409721374512 50.58949661254883 19.8326358795166 49.94742584228516 16.83874702453613 48.68111801147461 C 13.9459867477417 47.45757675170898 11.34759616851807 45.7055549621582 9.115766525268555 43.47372817993164 C 6.883926391601562 41.24189758300781 5.131916522979736 38.64350509643555 3.908376455307007 35.75074768066406 C 2.642066478729248 32.75685501098633 1.999996423721313 29.57539558410645 1.999996423721313 26.29474639892578 C 1.999996423721313 23.01409721374512 2.642066478729248 19.8326358795166 3.908376455307007 16.83874702453613 C 5.131916522979736 13.9459867477417 6.883926391601562 11.34759616851807 9.115766525268555 9.115766525268555 C 11.34759616851807 6.883926391601562 13.9459867477417 5.131916522979736 16.83874702453613 3.908376455307007 C 19.8326358795166 2.642066478729248 23.01409721374512 1.999996423721313 26.29474639892578 1.999996423721313 C 29.57539558410645 1.999996423721313 32.75685501098633 2.642066478729248 35.75074768066406 3.908376455307007 C 38.64350509643555 5.131916522979736 41.24189758300781 6.883926391601562 43.47372817993164 9.115766525268555 C 45.7055549621582 11.34759616851807 47.45757675170898 13.9459867477417 48.68111801147461 16.83874702453613 C 49.94742584228516 19.8326358795166 50.58949661254883 23.01409721374512 50.58949661254883 26.29474639892578 C 50.58949661254883 29.57539558410645 49.94742584228516 32.75685501098633 48.68111801147461 35.75073623657227 C 47.45757675170898 38.64350509643555 45.7055549621582 41.24188613891602 43.47372817993164 43.47372817993164 C 41.24188613891602 45.7055549621582 38.64350509643555 47.45757675170898 35.75073623657227 48.68111801147461 C 32.75685501098633 49.94742584228516 29.57539558410645 50.58949661254883 26.29474639892578 50.58949661254883 Z" stroke="none"/>
    <path d="M 26.29474639892578 4.000003814697266 C 23.28321266174316 4.000003814697266 20.3638801574707 4.588912963867188 17.61785888671875 5.750389099121094 C 14.9634895324707 6.873092651367188 12.57878112792969 8.481178283691406 10.52997970581055 10.52997970581055 C 8.481178283691406 12.57878112792969 6.873092651367188 14.9634895324707 5.750389099121094 17.61785888671875 C 4.588912963867188 20.3638801574707 4.000003814697266 23.28321266174316 4.000003814697266 26.29474639892578 C 4.000003814697266 29.3062801361084 4.588912963867188 32.22560119628906 5.750389099121094 34.97163391113281 C 6.873092651367188 37.62600326538086 8.481178283691406 40.01070404052734 10.52997970581055 42.05951309204102 C 12.57878112792969 44.10831451416016 14.9634895324707 45.71640014648438 17.61785888671875 46.83910369873047 C 20.3638801574707 48.00057983398438 23.28321266174316 48.58949279785156 26.29474639892578 48.58949279785156 C 29.3062801361084 48.58949279785156 32.22560119628906 48.00057983398438 34.97163391113281 46.83910369873047 C 37.62600326538086 45.71640014648438 40.01070404052734 44.10831451416016 42.05951309204102 42.05951309204102 C 44.10831451416016 40.01070404052734 45.71640014648438 37.62600326538086 46.83910369873047 34.97163391113281 C 48.00057983398438 32.22560119628906 48.58949279785156 29.3062801361084 48.58949279785156 26.29474639892578 C 48.58949279785156 23.28321266174316 48.00057983398438 20.3638801574707 46.83910369873047 17.61785888671875 C 45.71640014648438 14.9634895324707 44.10831451416016 12.57878112792969 42.05951309204102 10.52997970581055 C 40.01070404052734 8.481178283691406 37.62600326538086 6.873092651367188 34.97163391113281 5.750389099121094 C 32.22560119628906 4.588912963867188 29.3062801361084 4.000003814697266 26.29474639892578 4.000003814697266 M 26.29474639892578 3.814697265625e-06 C 40.81692504882812 3.814697265625e-06 52.5894889831543 11.77255630493164 52.5894889831543 26.29474639892578 C 52.5894889831543 40.81692504882812 40.81692504882812 52.5894889831543 26.29474639892578 52.5894889831543 C 11.77255630493164 52.5894889831543 3.814697265625e-06 40.81692504882812 3.814697265625e-06 26.29474639892578 C 3.814697265625e-06 11.77255630493164 11.77255630493164 3.814697265625e-06 26.29474639892578 3.814697265625e-06 Z" stroke="none" fill="#64e1fa"/>
  </g>
</svg>
