<svg xmlns="http://www.w3.org/2000/svg" viewBox="0 0 170 170">
<path d="M85,0C38.1,0,0,38.1,0,85s38.1,85,85,85,85-38.1,85-85S131.9,0,85,0ZM35.6,53.4l19.7-16.2,4.9,4c-.2,1.7-.5,3.3-.9,5-2.9,7.7-6.7,15-11.2,21.9-1.5,2.7-3.4,5.8-5.6,9-1.5,2.3-3,4.7-4.5,7.2h0c-.6-2.7-1.4-6.7-2.6-11.4-1.1-6.4-1.1-13,0-19.4ZM38.7,135.3c-1.7-5.3-2.8-10.9-3.3-16.5-.4-7.4.5-14.8,2.7-21.8,2.8-5.8,6.1-11.3,9.8-16.5,2.2-3.2,4.1-6.3,5.7-9.2,4.6-7.4,8.5-15.2,11.8-23.3.2-.8.4-1.6.5-2.4l9.5,7.6c.8,5,1.1,10.1.9,15.2-.1,2.7-.4,5.4-.6,7.9-4.5,12.1-10.4,23.7-17.5,34.5-.7,1.1-1.2,2-1.6,2.6-1.1,2-2.3,4-3.6,5.9-2.8,4.3-6.6,10.1-9.8,15.8h-4.5ZM76.2,135.3h0s0,0,0,0h-25.6l.2-.3s6.3-9.7,8.5-13.2c1.6-2.5,3-4.6,3.7-6.1.4-.6.9-1.5,1.5-2.5,1.6-2.7,3.7-6.3,6.3-10.4,3.7,7.7,5.7,16,5.8,24.5,0,2.7-.1,5.3-.4,8h0ZM143.6,104.3l-4.5,4.5c-1.2,1.2-3.1,1.2-4.3,0l-15.8-15.8-15.9,15.9c-1.2,1.2-3.1,1.2-4.3,0l-4.5-4.4c-1.2-1.2-1.2-3.1,0-4.3l15.9-15.9-16.2-16.2c-1.2-1.2-1.2-3.1,0-4.3l4.5-4.5s0,0,0,0c1.2-1.2,3.1-1.1,4.2,0l16.2,16.2,15.5-15.5s0,0,0,0c1.2-1.1,3.1-1.1,4.2,0l4.5,4.4c1.2,1.2,1.2,3.1,0,4.3l-15.5,15.5,15.8,15.8c1.2,1.2,1.2,3.1,0,4.3Z"/>
</svg>