<?xml version="1.0" encoding="utf-8"?>
<!-- Generator: Adobe Illustrator 22.0.1, SVG Export Plug-In . SVG Version: 6.00 Build 0)  -->
<svg version="1.1" id="Ebene_1" xmlns="http://www.w3.org/2000/svg" xmlns:xlink="http://www.w3.org/1999/xlink" x="0px" y="0px"
	 viewBox="0 0 170 170" style="enable-background:new 0 0 170 170;" xml:space="preserve">
<g>
	<path d="M46.2,40.6l8.7-5.1c2.4-1.5,3.3-4.5,1.8-6.9l-5.1-8.7c-1.5-2.4-4.5-3.3-6.9-1.8L36,23.2c-2.4,1.5-3.3,4.5-1.8,6.9l5.1,8.7
		C40.7,41.3,43.7,42.1,46.2,40.6z"/>
	<path d="M126,40.6l-8.7-5.1c-2.4-1.5-3.3-4.5-1.8-6.9l5.1-8.7c1.5-2.4,4.5-3.3,6.9-1.8l8.7,5.1c2.4,1.5,3.3,4.5,1.8,6.9l-5.1,8.7
		C131.5,41.3,128.3,42.1,126,40.6z"/>
	<path d="M85,50.1"/>
	<path d="M129.3,75.7"/>
	<g>
		<path d="M85,32.6c-38,0-68.7,30.8-68.7,68.7c0,38,30.8,68.7,68.7,68.7c38,0,68.7-30.8,68.7-68.7C153.8,63.3,123,32.6,85,32.6z
			 M84.8,155.7c-29.7,0-53.9-24.1-53.9-53.9S55,47.9,84.8,47.9s53.9,24.1,53.9,53.9S114.5,155.7,84.8,155.7z"/>
		<path d="M123.6,79L85,101.3V56.8c-0.1,0-0.2,0-0.2,0c-24.9,0-45,20.1-45,45s20.1,45,45,45s45-20.1,45-45
			C129.8,93.4,127.5,85.7,123.6,79z"/>
	</g>
	<path d="M90.1,0H79.9c-2.8,0-5.1,2.3-5.1,5.1v10.2c0,2.8,2.3,5.1,5.1,5.1h1.3l0,0v6.3c0,1.1,0.8,1.9,1.9,1.9h3.8
		c1.1,0,1.9-0.8,1.9-1.9v-6.4l0,0h1.2c2.8,0,5.1-2.3,5.1-5.1V5C95.2,2.3,92.9,0,90.1,0z"/>
</g>
</svg>
