<svg id="Komponente_114_726" data-name="Komponente 114 – 726" xmlns="http://www.w3.org/2000/svg" width="52.59" height="52.59" viewBox="0 0 52.59 52.59">
  <g id="Gruppe_4270" data-name="Gruppe 4270" transform="translate(0 0)">
    <path id="Pfad_6068" data-name="Pfad 6068" d="M26.295,0A26.295,26.295,0,1,1,0,26.295,26.295,26.295,0,0,1,26.295,0Z" transform="translate(52.59 52.59) rotate(180)" fill="#78828c"/>
    <path id="Zoller_Icon_Questionmark_Bold" d="M44.429,14.515c-1.183.869-2.489,1.475-2.489,3.44v.113a.869.869,0,0,1-.869.869h-3.6a.869.869,0,0,1-.869-.869h0a7.725,7.725,0,0,1,1.958-5.1c1.387-1.475,4.732-2.683,4.732-5.141,0-1.966-1.141-2.986-3.182-2.986-.945,0-2.838.488-3.271,3.452a.87.87,0,0,1-.859.745H32.419a.87.87,0,0,1-.866-.961C31.907,4.829,34.051,0,40.106,0c5.017,0,8.484,3.176,8.484,7.786,0,3.1-2.08,5.178-4.161,6.728Zm-8.2,11.718V22.15a.869.869,0,0,1,.869-.869h4.5a.869.869,0,0,1,.869.869v4.083a.869.869,0,0,1-.869.869H37.1A.869.869,0,0,1,36.23,26.233Z" transform="translate(-13.359 12.648)" fill="#323c46"/>
  </g>
</svg>
