<svg id="Zoller_Icon_Menu_Bar" xmlns="http://www.w3.org/2000/svg" width="45.07" height="45.07" viewBox="0 0 45.07 45.07">
  <path id="Pfad_5309" data-name="Pfad 5309" d="M42.978,66.6H2.718A2.274,2.274,0,0,0,.3,68.672v4.3a2.274,2.274,0,0,0,2.418,2.072H42.951a2.274,2.274,0,0,0,2.418-2.072v-4.3A2.231,2.231,0,0,0,42.978,66.6Z" transform="translate(-0.3 -48.275)" fill="#b9c3cd"/>
  <path id="Pfad_5310" data-name="Pfad 5310" d="M42.978.3H2.718A2.274,2.274,0,0,0,.3,2.372v4.3A2.274,2.274,0,0,0,2.718,8.748H42.951A2.274,2.274,0,0,0,45.37,6.676v-4.3A2.231,2.231,0,0,0,42.978.3Z" transform="translate(-0.3 -0.3)" fill="#b9c3cd"/>
  <path id="Pfad_5311" data-name="Pfad 5311" d="M42.978,132.8H2.718A2.274,2.274,0,0,0,.3,134.872v4.3a2.274,2.274,0,0,0,2.418,2.072H42.951a2.274,2.274,0,0,0,2.418-2.072v-4.3A2.231,2.231,0,0,0,42.978,132.8Z" transform="translate(-0.3 -96.178)" fill="#b9c3cd"/>
</svg>
