<svg id="Ebene_1" data-name="Ebene 1" xmlns="http://www.w3.org/2000/svg" viewBox="0 0 170 170"><title>Zoller_Icon_Insert_Line</title><rect x="32.54" y="124.19" width="70.9" height="25.5"/><rect x="32.54" y="19.19" width="70.9" height="25.5"/><path d="M32.54,97.29V71.79h70.9v25.5Zm66.6-21H36.84V93h62.3Z"/><path d="M166.9,90.8H148.7v18.4a3.12,3.12,0,0,1-3.1,3.1h-6.3a3.12,3.12,0,0,1-3.1-3.1V90.8H117.5a3.12,3.12,0,0,1-3.1-3.1V81.3a3.12,3.12,0,0,1,3.1-3.1h18.6V59.9a3.12,3.12,0,0,1,3.1-3.1h6.4a3.12,3.12,0,0,1,3.1,3.1V78.2h18.2a3.12,3.12,0,0,1,3.1,3.1v6.4A3.12,3.12,0,0,1,166.9,90.8Z"/><polygon id="_Pfad_" data-name="&lt;Pfad&gt;" points="0 67.59 18 84.69 0 101.5 0 67.59"/></svg>