<svg id="Zoller_Icon_Open_New_Window" xmlns="http://www.w3.org/2000/svg" width="28" height="28.003" viewBox="0 0 28 28.003">
  <path id="Zoller_Icon_Export" data-name="Zoller Icon Export" d="M96.5,11.009,94.182,8.7,86.548,16.33l-2.488-2.5L91.7,6.2c-1.289-1.272-2.343-2.323-2.351-2.343-.8-.815-.328-1.763.944-1.995L100.371,0,98.5,10.083C98.248,11.337,97.327,11.809,96.5,11.009Z" transform="translate(-72.371)" fill="#e1ebf5"/>
  <path id="Pfad_6888" data-name="Pfad 6888" d="M21.959,33.542v6.783a1.127,1.127,0,0,1-1.125,1.126H5.3a1.127,1.127,0,0,1-1.126-1.126V24.793a1.127,1.127,0,0,1,1.13-1.122H12V19.49h-6.7A5.313,5.313,0,0,0,0,24.8V40.328a5.313,5.313,0,0,0,5.306,5.306H20.838a5.313,5.313,0,0,0,5.306-5.306V33.542Z" transform="translate(0 -17.632)" fill="#e1ebf5"/>
</svg>
