<svg xmlns="http://www.w3.org/2000/svg" viewBox="0 0 170 170">
  <path fill="currentColor" d="M85,0h0C67.41,0,53.15,14.26,53.15,31.85v90.29c0,14.06,9.12,25.98,21.76,30.21v17.66h20.18v-17.66c12.64-4.22,21.76-16.14,21.76-30.21V31.85C116.85,14.26,102.59,0,85,0ZM85,18.97c6.68,0,11.29,2.56,14.28,7.99-3.87-2.62-8.67-4.01-14.28-4.01-4.74,0-9.86.89-14.24,3.68,2.96-5.2,7.56-7.66,14.24-7.66ZM85,135.85c-9.39,0-17.01-7.61-17.01-17.01,0-1,.1-1.97.27-2.93,3.35-4.4,8.64-7.17,16.74-7.17s13.47,3.11,16.81,7.67c.12.79.2,1.6.2,2.43,0,9.39-7.61,17.01-17.01,17.01ZM70.77,109.03c2.96-5.2,7.56-7.66,14.24-7.66s11.29,2.56,14.28,7.99c-3.87-2.62-8.67-4.01-14.28-4.01-4.74,0-9.86.89-14.24,3.68ZM85,94c-9.39,0-17.01-7.61-17.01-17.01,0-1,.1-1.97.27-2.93,3.35-4.4,8.64-7.17,16.74-7.17s13.47,3.11,16.81,7.67c.12.79.2,1.6.2,2.43,0,9.39-7.61,17.01-17.01,17.01ZM70.77,67.18c2.96-5.2,7.56-7.66,14.24-7.66s11.29,2.56,14.28,7.99c-3.87-2.62-8.67-4.01-14.28-4.01-4.74,0-9.86.89-14.24,3.68ZM85,53.45c-9.39,0-17.01-7.61-17.01-17.01,0-1,.1-1.97.27-2.93,3.35-4.4,8.64-7.17,16.74-7.17s13.47,3.11,16.81,7.67c.12.79.2,1.6.2,2.43,0,9.39-7.61,17.01-17.01,17.01Z"/>
</svg>

