<?xml version="1.0" encoding="utf-8"?>
<!-- Generator: Adobe Illustrator 22.0.1, SVG Export Plug-In . SVG Version: 6.00 Build 0)  -->
<svg version="1.1" id="Ebene_1" xmlns="http://www.w3.org/2000/svg" xmlns:xlink="http://www.w3.org/1999/xlink" x="0px" y="0px"
	 viewBox="0 0 170 170" style="enable-background:new 0 0 170 170;" xml:space="preserve">
<g>
	<g>
		<rect x="39.7" y="42.5" width="36" height="11.3"/>
		<rect x="39.5" y="99.3" width="35.9" height="11.3"/>
		<rect x="39.7" y="127.7" width="35.9" height="11.3"/>
	</g>
	<circle cx="22.4" cy="48" r="5.9"/>
	<circle cx="22.4" cy="104.1" r="5.9"/>
	<circle cx="22.4" cy="132.8" r="5.9"/>
	<path d="M81.8,24.1H10.5C4.7,24.1,0,28.8,0,34.5v112.7c0,5.8,4.7,10.5,10.5,10.5h71.3c5.8,0,10.5-4.7,10.5-10.5V34.5
		C92.2,28.8,87.6,24.1,81.8,24.1z M87.2,147.2c0,3-2.4,5.4-5.4,5.4H10.5c-3,0-5.4-2.4-5.4-5.4V89.7h82.3L87.2,147.2L87.2,147.2z
		 M16.6,76c0-3.3,2.6-5.9,5.9-5.9s5.9,2.6,5.9,5.9c0,3.3-2.6,5.9-5.9,5.9S16.6,79.3,16.6,76z M39.5,82.2V70.9h35.9v11.3H39.5z
		 M87.2,62.6H5v-28c0-3,2.4-5.4,5.4-5.4h71.3c3,0,5.4,2.4,5.4,5.4V62.6z"/>
</g>
<g>
	<path d="M107.2,56.1l-1.8,2.4c-0.1,0.1-3.5,4.8-5.2,10.6c-1.4,4.6-2,9.5-2.2,11.6l0,0l-0.1,3.8l3.8-0.1l0.1-0.1
		c2.1-0.3,7.1-0.8,11.6-2.2c5.7-1.7,10.3-5.1,10.6-5.2l2.4-1.8L107.2,56.1z M112.3,77.3l-7.1-7.1c0.8-2.2,1.8-4.3,2.6-5.9l10.3,10.3
		C116.7,75.4,114.6,76.5,112.3,77.3z"/>
	<g>
		<path d="M168.8,32.3c2.1-2.1,1.3-6.1-1-8.6l-9.1-9.1c-2.4-2.4-6.5-3.1-8.6-1l-3.5,3.5L165.4,36L168.8,32.3z"/>
		<rect x="114.6" y="33" transform="matrix(0.7071 -0.7071 0.7071 0.7071 7.001 109.7122)" width="42.6" height="26.8"/>
	</g>
</g>
</svg>
