<svg xmlns="http://www.w3.org/2000/svg" width="120" height="180" viewBox="0 0 120 180">
  <style>
    circle { stroke: black; stroke-width: 1; }
  </style>

  <!-- Column 1 -->
  <circle id="circle1"  cx="15" cy="15"  r="7.5" fill="white"/>
  <circle id="circle2"  cx="15" cy="37.5"  r="7.5" fill="white"/>
  <circle id="circle3"  cx="15" cy="60"  r="7.5" fill="white"/>
  <circle id="circle4"  cx="15" cy="82.5" r="7.5" fill="white"/>
  <circle id="circle5"  cx="15" cy="105"  r="7.5" fill="white"/>
  <circle id="circle6"  cx="15" cy="127.5" r="7.5" fill="white"/>

  <!-- Column 2 -->
  <circle id="circle7"  cx="37.5" cy="15"  r="7.5" fill="white"/>
  <circle id="circle8"  cx="37.5" cy="37.5"  r="7.5" fill="white"/>
  <circle id="circle9"  cx="37.5" cy="60"  r="7.5" fill="white"/>
  <circle id="circle10" cx="37.5" cy="82.5" r="7.5" fill="white"/>
  <circle id="circle11" cx="37.5" cy="105"  r="7.5" fill="white"/>
  <circle id="circle12" cx="37.5" cy="127.5" r="7.5" fill="white"/>

  <!-- Column 3 -->
  <circle id="circle13" cx="60" cy="15"  r="7.5" fill="white"/>
  <circle id="circle14" cx="60" cy="37.5"  r="7.5" fill="white"/>
  <circle id="circle15" cx="60" cy="60"  r="7.5" fill="white"/>
  <circle id="circle16" cx="60" cy="82.5" r="7.5" fill="white"/>
  <circle id="circle17" cx="60" cy="105"  r="7.5" fill="white"/>
  <circle id="circle18" cx="60" cy="127.5" r="7.5" fill="white"/>

  <!-- Column 4 -->
  <circle id="circle19" cx="82.5" cy="15"  r="7.5" fill="white"/>
  <circle id="circle20" cx="82.5" cy="37.5"  r="7.5" fill="white"/>
  <circle id="circle21" cx="82.5" cy="60"  r="7.5" fill="white"/>
  <circle id="circle22" cx="82.5" cy="82.5" r="7.5" fill="white"/>
  <circle id="circle23" cx="82.5" cy="105"  r="7.5" fill="white"/>
  <circle id="circle24" cx="82.5" cy="127.5" r="7.5" fill="white"/>
</svg>
