<?xml version="1.0" encoding="utf-8"?>
<!-- Generator: Adobe Illustrator 22.0.1, SVG Export Plug-In . SVG Version: 6.00 Build 0)  -->
<svg version="1.1" id="Ebene_1" xmlns="http://www.w3.org/2000/svg" xmlns:xlink="http://www.w3.org/1999/xlink" x="0px" y="0px"
	 viewBox="0 0 170 170" style="enable-background:new 0 0 170 170;" xml:space="preserve">
<g>
	<path d="M129.9,52.9h-16.7V41.7c0-13.8-11.2-25-25-25h-5.5c-13.8,0-25,11.2-25,25v11.2H40.9V41.7C40.9,18.7,59.5,0,82.6,0h5.5
		c23,0,41.7,18.7,41.7,41.7L129.9,52.9L129.9,52.9z"/>
	<path d="M23.5,64.7v87.8c0,9.7,7.9,17.5,17.5,17.5H129c10.2,0,17.5-8.4,17.5-20V64.7H23.5z M95.1,121.7v15.6c0,5.2-4.2,9.2-9.2,9.2
		h-1.1c-5.2,0-9.2-4.2-9.2-9.2V122c-5.8-3.4-9.7-9.6-9.7-16.7C65.7,94.6,74.3,86,85,86s19.3,8.6,19.3,19.3
		C104.5,112.3,100.7,118.3,95.1,121.7z"/>
</g>
</svg>
