<?xml version="1.0" encoding="UTF-8"?>
<svg id="Ebene_1" xmlns="http://www.w3.org/2000/svg" version="1.1" xmlns:xlink="http://www.w3.org/1999/xlink" viewBox="0 0 759.3 419.4">
  <!-- Generator: Adobe Illustrator 29.7.1, SVG Export Plug-In . SVG Version: 2.1.1 Build 8)  -->
  <defs>
    <style>
      .st0 {
        fill: #2b353e;
      }

      .st1 {
        fill: url(#Unbenannter_Verlauf_5);
      }

      .st2 {
        fill: #2d353e;
      }

      .st3 {
        fill: #3c4650;
        font-family: SegoeUI-Semibold, 'Segoe UI';
        font-size: 16px;
        font-weight: 600;
        isolation: isolate;
      }

      .st4 {
        fill: #64e1fa;
      }

      .st5 {
        fill: #f0e600;
      }

      .st6 {
        fill: #505a63;
      }

      .st7 {
        fill: url(#Unbenannter_Verlauf_2);
      }

      .st8 {
        fill: #1b2126;
      }

      .st9 {
        fill: #0a141e;
      }
    </style>
    <linearGradient id="Unbenannter_Verlauf_5" data-name="Unbenannter Verlauf 5" x1="349.2" y1="225.9" x2="349.2" y2="224.9" gradientTransform="translate(14233.9 -8568.3) rotate(-180) scale(38.9 -38.9)" gradientUnits="userSpaceOnUse">
      <stop offset="0" stop-color="#b9c3cd"/>
      <stop offset="1" stop-color="#fff"/>
    </linearGradient>
    <radialGradient id="Unbenannter_Verlauf_2" data-name="Unbenannter Verlauf 2" cx="333.6" cy="235.9" fx="333.6" fy="235.9" r=".5" gradientTransform="translate(-15709 12005.2) scale(49 -50)" gradientUnits="userSpaceOnUse">
      <stop offset="0" stop-color="#2d353e" stop-opacity=".6"/>
      <stop offset=".3" stop-color="#272e36" stop-opacity=".6"/>
      <stop offset=".7" stop-color="#171b20" stop-opacity=".7"/>
      <stop offset="1" stop-color="#000" stop-opacity=".7"/>
    </radialGradient>
  </defs>
  <path class="st6" d="M677,69.9h-140.8V7.7c0-2.9-2.3-5.2-5.2-5.2h-46.2c-2.9,0-5.2,2.3-5.2,5.2v35.7c-8.1,3.1-31.2,12.3-54.9,26.6H0v248.1c0,17.4,14.5,31.4,32.4,31.4h392.4c23.7,14.3,46.8,23.5,54.9,26.6v35.7c0,2.9,2.3,5.2,5.2,5.2h46.1c2.9,0,5.2-2.3,5.2-5.2v-62.2h140.8c45.4,0,82.3-35.8,82.3-79.9v-119.7c0-44.1-36.8-79.9-82.3-79.9Z"/>
  <g>
    <path class="st1" d="M635.2,189.4c2.6,0,5.2.5,7.6,1.5,2.3,1,4.4,2.4,6.2,4.2,1.8,1.8,3.2,3.9,4.2,6.2,1,2.4,1.5,4.9,1.5,7.6s-.5,5.2-1.5,7.6c-1,2.3-2.4,4.4-4.2,6.2-1.8,1.8-3.9,3.2-6.2,4.2-2.4,1-4.9,1.5-7.6,1.5s-5.2-.5-7.6-1.5c-2.3-1-4.4-2.4-6.2-4.2-1.8-1.8-3.2-3.9-4.2-6.2-1-2.4-1.5-4.9-1.5-7.6s.5-5.2,1.5-7.6c1-2.3,2.4-4.4,4.2-6.2,1.8-1.8,3.9-3.2,6.2-4.2,2.4-1,4.9-1.5,7.6-1.5Z"/>
    <path class="st4" d="M635.2,226.9c4.8,0,9.3-1.9,12.7-5.3,3.4-3.4,5.3-7.9,5.3-12.7s-1.9-9.3-5.3-12.7c-3.4-3.4-7.9-5.3-12.7-5.3s-9.3,1.9-12.7,5.3c-3.4,3.4-5.3,7.9-5.3,12.7s1.9,9.3,5.3,12.7c3.4,3.4,7.9,5.3,12.7,5.3M635.2,229.9c-11.6,0-21-9.4-21-21s9.4-21,21-21,21,9.4,21,21-9.4,21-21,21Z"/>
    <text class="st3" transform="translate(629.6 211.5)"><tspan x="0" y="0">?</tspan></text>
    <circle id="Ellipse_1266" class="st9" cx="635.6" cy="209.7" r="91.7"/>
    <circle id="Ellipse_1267" cx="635.6" cy="209.7" r="71.8"/>
    <path id="Pfad_6681" class="st8" d="M635.6,156.2c29.6,0,53.5,24,53.5,53.5s-24,53.5-53.5,53.5-53.5-24-53.5-53.5c0-29.6,24-53.5,53.5-53.5h0Z"/>
    <circle id="Ellipse_1269" class="st6" cx="635.6" cy="209.7" r="43.7"/>
    <path id="Pfad_6667" class="st5" d="M557,192.2c-.3,0-.6,0-.9-.1-1.9-.5-3-2.5-2.5-4.4,0,0,0,0,0,0,7.9-29.2,30.7-52,59.8-60,1.9-.5,3.9.5,4.4,2.4.5,1.9-.5,3.9-2.4,4.4,0,0,0,0-.1,0-26.7,7.3-47.6,28.2-54.8,54.9-.4,1.6-1.8,2.7-3.5,2.7h0Z"/>
    <path id="Pfad_6668" class="st5" d="M653.1,131.1c0-.3,0-.6.1-.9.5-1.9,2.5-3,4.4-2.5,0,0,0,0,0,0,29.2,7.9,52,30.7,60,59.8.5,1.9-.5,3.9-2.4,4.4s-3.9-.5-4.4-2.4c0,0,0,0,0-.1-7.3-26.7-28.2-47.6-54.9-54.8-1.6-.4-2.7-1.8-2.7-3.5h0Z"/>
    <circle id="Ellipse_1270" class="st6" cx="635.6" cy="209.7" r="33.5"/>
    <path id="Pfad_6669" class="st5" d="M714.2,227.2c.3,0,.6,0,.9.1,1.9.5,3,2.5,2.5,4.4,0,0,0,0,0,0-7.9,29.2-30.7,52-59.8,60-1.9.5-3.9-.5-4.4-2.4s.5-3.9,2.4-4.4c0,0,0,0,.1,0,26.7-7.3,47.6-28.2,54.8-54.9.4-1.6,1.8-2.7,3.5-2.7h0Z"/>
    <path id="Pfad_6670" class="st5" d="M618.1,288.3c0,.3,0,.6-.1.9-.5,1.9-2.5,3-4.4,2.5,0,0,0,0,0,0-29.2-7.9-52-30.7-60-59.8-.5-1.9.6-3.9,2.6-4.4,1.9-.5,3.8.6,4.4,2.5,7.3,26.7,28.2,47.6,54.9,54.8,1.6.4,2.7,1.8,2.7,3.5Z"/>
    <ellipse class="st7" cx="635.5" cy="209.9" rx="24.5" ry="25"/>
    <path class="st2" d="M635.5,234.9c-13.5,0-24.5-11.2-24.5-25s11-25,24.5-25,24.5,11.2,24.5,25-11,25-24.5,25ZM635.5,186.9c-12.4,0-22.5,10.3-22.5,23s10.1,23,22.5,23,22.5-10.3,22.5-23-10.1-23-22.5-23Z"/>
  </g>
  <path class="st0" d="M531,338h-46.2c-3.8,0-7,2.8-7.6,6.4-10.3-3.1-30.2-10.6-46.3-25.6-14.4-13.5-24.7-25.8-30.4-36.6h124.5v-145.1h-124.5c5.7-10.7,16-23.1,30.4-36.6,16.1-15.1,36-22.5,46.3-25.6.6,3.7,3.8,6.5,7.6,6.5h46.1s0,0,0,0c4.2,0,7.7-3.4,7.7-7.7V7.7c0-2.1-.8-4-2.2-5.4-1.5-1.5-3.4-2.3-5.4-2.3h-46.2c-4.2,0-7.7,3.4-7.7,7.7v33.9c-18.6,7.2-91.1,37.5-112.6,82.7h-136.5s-14.9,0-14.9,0c-4.3,0-8.5.8-12.4,2.5-3.8,1.6-7.2,3.9-10.1,6.8s-2.1,2.3-3,3.5H39.3v145.1h146.6v-1.4c1.3,2.2,2.9,4.2,4.7,6.1,2.9,2.9,6.3,5.2,10.1,6.8,3.9,1.7,8.1,2.5,12.4,2.5h14.9s137.1,0,137.1,0c22.2,44.5,93.7,74.5,112,81.5v33.9c0,4.2,3.4,7.7,7.7,7.7h46.2c4.2,0,7.7-3.5,7.7-7.7v-66c0-4.2-3.4-7.7-7.7-7.7ZM221.1,291.2h-7.9c-14.8,0-26.8-12-26.8-26.8v-108.3c0-14.8,12-26.8,26.8-26.8h7.9v161.9ZM362.1,291.2h-134v-161.9h134v161.9ZM533.7,411.7c0,1.5-1.2,2.7-2.7,2.7h-46.1c-1.5,0-2.7-1.2-2.7-2.7v-37.4l-1.6-.6c-15.4-5.8-93.1-37.1-112.7-83.5l-.3-.7v-159.8c19.1-46.7,97.4-78.2,113-84.1l1.6-.6V7.7c0-1.5,1.2-2.7,2.7-2.7h46.2c.7,0,1.4.3,1.9.8.5.5.8,1.2.8,1.9v66c0,1.5-1.2,2.7-2.7,2.7h-46.1c-1.5,0-2.7-1.2-2.7-2.7v-5.3l-3.2.9c-9.2,2.5-32.7,10.2-51.5,27.7-16,14.9-26.9,28.4-32.7,40.2h-.2v.5c-3,6.4-4.6,12.3-4.6,17.6s0,.4,0,.6v.3s0,.1,0,.1c0,.1,0,.3,0,.4,0,0,0,.1,0,.2v107.1c0,0,0,.2,0,.2,0,5.4,1.5,11.3,4.6,17.7v.5h.2c5.8,11.8,16.7,25.3,32.7,40.2,18.7,17.5,42.2,25.2,51.5,27.7l3.2.9v-5.3c0-1.5,1.2-2.7,2.7-2.7h46.2c1.5,0,2.7,1.2,2.7,2.7v66Z"/>
</svg>