<svg id="Gruppe_3911" data-name="Gruppe 3911" xmlns="http://www.w3.org/2000/svg" xmlns:xlink="http://www.w3.org/1999/xlink" width="183.482" height="183.482" viewBox="0 0 183.482 183.482">
  <defs>
    <linearGradient id="linear-gradient" x1="0.5" x2="0.5" y2="1" gradientUnits="objectBoundingBox">
      <stop offset="0" stop-color="#b9c3cd"/>
      <stop offset="1" stop-color="#fff"/>
    </linearGradient>
  </defs>
  <g id="Gruppe_3484" data-name="Gruppe 3484" transform="translate(70.421 70.001)">
    <g id="Pfad_6068" data-name="Pfad 6068" transform="translate(41.939 41.939) rotate(180)" fill="url(#linear-gradient)">
      <path d="M 20.96941184997559 40.43882369995117 C 18.34039115905762 40.43882369995117 15.79081153869629 39.92426300048828 13.39149188995361 38.90943145751953 C 11.07327175140381 37.92891311645508 8.990982055664062 36.5248908996582 7.202461719512939 34.73637008666992 C 5.413941860198975 32.94785308837891 4.009912014007568 30.86555099487305 3.029391765594482 28.54733276367188 C 2.014561891555786 26.14801216125488 1.500001907348633 23.59843254089355 1.500001907348633 20.96941184997559 C 1.500001907348633 18.34039115905762 2.014561891555786 15.79082202911377 3.029391765594482 13.39150142669678 C 4.009912014007568 11.07327175140381 5.413941860198975 8.990982055664062 7.202461719512939 7.202461719512939 C 8.990982055664062 5.413941860198975 11.07327175140381 4.009912014007568 13.39150142669678 3.029391765594482 C 15.79082202911377 2.014561891555786 18.34039115905762 1.500001907348633 20.96941184997559 1.500001907348633 C 23.59843254089355 1.500001907348633 26.14801216125488 2.014561891555786 28.54733276367188 3.029391765594482 C 30.86555099487305 4.009912014007568 32.94785308837891 5.413941860198975 34.73637008666992 7.202461719512939 C 36.5248908996582 8.990982055664062 37.92891311645508 11.07327175140381 38.90943145751953 13.39149188995361 C 39.92426300048828 15.79081153869629 40.43882369995117 18.34039115905762 40.43882369995117 20.96941184997559 C 40.43882369995117 23.59843254089355 39.92426300048828 26.14801216125488 38.90943145751953 28.54733276367188 C 37.92891311645508 30.86555099487305 36.5248908996582 32.94785308837891 34.73637008666992 34.73637008666992 C 32.94785308837891 36.5248908996582 30.86555099487305 37.92891311645508 28.54733276367188 38.90943145751953 C 26.14801216125488 39.92426300048828 23.59843254089355 40.43882369995117 20.96941184997559 40.43882369995117 Z" stroke="none"/>
      <path d="M 20.96941184997559 3 C 16.16960144042969 3 11.65709114074707 4.869140625 8.26312255859375 8.26312255859375 C 4.869140625 11.65709114074707 3 16.16960144042969 3 20.96941184997559 C 3 25.76922225952148 4.869140625 30.28173065185547 8.26312255859375 33.67570114135742 C 11.65709114074707 37.06968307495117 16.16960144042969 38.93881988525391 20.96941184997559 38.93881988525391 C 25.76922225952148 38.93881988525391 30.28173065185547 37.06968307495117 33.67570114135742 33.67570114135742 C 37.06968307495117 30.28173065185547 38.93881988525391 25.76922225952148 38.93881988525391 20.96941184997559 C 38.93881988525391 16.16960144042969 37.06968307495117 11.65709114074707 33.67570114135742 8.26312255859375 C 30.28173065185547 4.869140625 25.76922225952148 3 20.96941184997559 3 M 20.96941184997559 0 C 32.55050277709961 0 41.93882369995117 9.388320922851562 41.93882369995117 20.96941184997559 C 41.93882369995117 32.55050277709961 32.55050277709961 41.93882369995117 20.96941184997559 41.93882369995117 C 9.388320922851562 41.93882369995117 0 32.55050277709961 0 20.96941184997559 C 0 9.388320922851562 9.388320922851562 0 20.96941184997559 0 Z" stroke="none" fill="#64e1fa"/>
    </g>
    <text id="_" data-name="?" transform="translate(22.474 23.553)" fill="#3c4650" font-size="16" font-family="SegoeUI-ZSemibold, Segoe UI" font-weight="600" opacity="0.5"><tspan x="-7" y="0">?</tspan></text>
  </g>
  <g id="emg-top" transform="translate(0 0)">
    <circle id="Ellipse_1266" data-name="Ellipse 1266" cx="91.741" cy="91.741" r="91.741" transform="translate(0 0)" fill="#0a141e"/>
    <circle id="Ellipse_1267" data-name="Ellipse 1267" cx="71.766" cy="71.766" r="71.766" transform="translate(19.975 19.975)"/>
    <path id="Pfad_6681" data-name="Pfad 6681" d="M53.524,0A53.524,53.524,0,1,1,0,53.524,53.524,53.524,0,0,1,53.524,0Z" transform="translate(38.217 38.217)" fill="#1b2126"/>
    <circle id="Ellipse_1269" data-name="Ellipse 1269" cx="43.747" cy="43.747" r="43.747" transform="translate(47.994 47.994)" fill="#505a63"/>
    <path id="Pfad_6667" data-name="Pfad 6667" d="M279.7,95.433a3.275,3.275,0,0,1-.923-.128,3.577,3.577,0,0,1-2.527-4.387,85.111,85.111,0,0,1,59.835-59.95,3.58,3.58,0,1,1,1.86,6.913,77.908,77.908,0,0,0-54.782,54.9,3.573,3.573,0,0,1-3.463,2.655Z" transform="translate(-266.545 -21.212)" fill="#f0e600"/>
    <path id="Pfad_6668" data-name="Pfad 6668" d="M353.84,34.388a3.274,3.274,0,0,1,.128-.923,3.577,3.577,0,0,1,4.387-2.527,85.11,85.11,0,0,1,59.951,59.835,3.58,3.58,0,1,1-6.913,1.86,77.908,77.908,0,0,0-54.9-54.781,3.573,3.573,0,0,1-2.655-3.463Z" transform="translate(-244.578 -21.221)" fill="#f0e600"/>
    <circle id="Ellipse_1270" data-name="Ellipse 1270" cx="33.512" cy="33.512" r="33.512" transform="translate(58.229 58.229)" fill="#505a63"/>
    <path id="Pfad_6669" data-name="Pfad 6669" d="M414.859,108.53a3.274,3.274,0,0,1,.924.128,3.577,3.577,0,0,1,2.527,4.387A85.11,85.11,0,0,1,358.474,173a3.58,3.58,0,1,1-1.86-6.913,77.908,77.908,0,0,0,54.782-54.9,3.573,3.573,0,0,1,3.463-2.655Z" transform="translate(-244.543 0.745)" fill="#f0e600"/>
    <path id="Pfad_6670" data-name="Pfad 6670" d="M340.743,169.549a3.274,3.274,0,0,1-.128.923A3.577,3.577,0,0,1,336.228,173a85.11,85.11,0,0,1-59.951-59.835,3.58,3.58,0,0,1,6.914-1.86,77.908,77.908,0,0,0,54.9,54.781A3.573,3.573,0,0,1,340.743,169.549Z" transform="translate(-266.536 0.78)" fill="#f0e600"/>
  </g>
</svg>
