<svg id="Ebene_1" data-name="Ebene 1" xmlns="http://www.w3.org/2000/svg" viewBox="0 0 170 170"><title>Zoller_Icon_Tool_Identify</title><path d="M1.29,52.17c1.12,4.38,2,8.41,2.75,11.74,1.26-2,2.48-3.91,3.76-5.84,3.57-5.44,6.41-9.9,8.65-13.9C28.54,23.68,32.57,14,33.91,10A46,46,0,0,0,35,4L29.9,0,1.19,23.63C.64,27.48-1.24,42.32,1.29,52.17Z"/><path d="M48.09,14.5v0c-2.63,7.7-8.87,20.21-18.56,37.17-2.26,3.91-4.89,8.06-7.68,12.45L20.53,66.2c-.92,1.45-1.93,3-3,4.65C12.81,78.15,6.93,87.23,5.33,91.62c-2,5.53-5.47,19.63-4.14,33.36,1.24,14.09,4,22.86,5.91,27.78,5.61-9.93,12.27-20.43,17.17-27.91,2.35-3.61,4.15-6.54,5.46-8.67l.28-.45a38,38,0,0,1,2.66-4.27l.74-1.21c7-11.41,21.41-35.09,26.5-52.26.1-1.06.2-2.15.31-3.25.28-2.91.57-5.91.69-8.9a132.9,132.9,0,0,0-1.19-22.53L48.17,14.23C48.14,14.32,48.12,14.41,48.09,14.5Z"/><path d="M55.73,170a104.74,104.74,0,0,0,4.67-31.71,89.58,89.58,0,0,0-6.82-33q-2.51,4.2-4.67,7.72-1.41,2.33-2.6,4.3l-.07.1A39.79,39.79,0,0,0,44,121.06l-.11.2c-.94,1.52-3,4.78-6,9.49-3.45,5.26-12.7,19.69-13.34,20.7-.79,1.38-1.61,2.67-2.48,4-.65,1-1.31,2.06-2,3.16-1.52,2.47-3.35,5.31-5.29,8.32l-2,3Z"/><path d="M168,119.27,145.91,99.72A36.74,36.74,0,1,0,135.55,110l19.57,22.13c2.49,2.49,6.84,2.19,9.32-.29L168.3,128C170.76,125.52,170.46,121.75,168,119.27Zm-37.34-14.82a29.39,29.39,0,1,1,9.72-9.65A29.39,29.39,0,0,1,130.64,104.45Z"/></svg>