<svg xmlns="http://www.w3.org/2000/svg" width="357.337" height="419.378" viewBox="0 0 357.337 419.378">
  <g id="Gruppe_4139" data-name="Gruppe 4139" transform="translate(5 2.5)">
    <g id="Rechteck_4128" data-name="Rechteck 4128" transform="translate(39.719 126.797)" fill="#505a63" stroke="#2b353e" stroke-width="5">
      <rect width="135.963" height="161.933" stroke="none"/>
      <rect x="-2.5" y="-2.5" width="140.963" height="166.933" fill="none"/>
    </g>
    <g id="Pfad_6686" data-name="Pfad 6686" transform="translate(0 43.797)" fill="#505a63">
      <path d="M 39.16413116455078 247.4332427978516 L 36.66413116455078 247.4332427978516 L 26.79994964599609 247.4332427978516 C 22.84549522399902 247.4332427978516 19.00801849365234 246.6582489013672 15.39417743682861 245.1297454833984 C 11.90483665466309 243.6539306640625 8.771632194519043 241.5416564941406 6.08160924911499 238.8516387939453 C 3.391586303710938 236.16162109375 1.279313683509827 233.0284118652344 -0.1965045034885406 229.5390472412109 C -1.725004553794861 225.9252014160156 -2.500004529953003 222.0877227783203 -2.500004529953003 218.1332702636719 L -2.500004529953003 109.7999572753906 C -2.500004529953003 105.8454971313477 -1.725004553794861 102.0080261230469 -0.1965045034885406 98.39418029785156 C 1.279313683509827 94.90483856201172 3.391586303710938 91.77163696289062 6.08160924911499 89.08161163330078 C 8.771632194519043 86.39159393310547 11.90483665466309 84.27931976318359 15.39417743682861 82.80349731445312 C 19.00801849365234 81.27500152587891 22.84549522399902 80.5 26.79994964599609 80.5 L 36.66413116455078 80.5 L 39.16413116455078 80.5 L 39.16413116455078 83 L 39.16413116455078 244.9332427978516 L 39.16413116455078 247.4332427978516 Z" stroke="none"/>
      <path d="M 36.66413879394531 244.9332427978516 L 36.66413879394531 83.00001525878906 L 26.7999382019043 83.00001525878906 C 11.99833869934082 83.00001525878906 -1.132507350121159e-05 94.99833679199219 -1.132507350121159e-05 109.7999649047852 L -1.132507350121159e-05 218.1332702636719 C -1.132507350121159e-05 232.9348907470703 11.99833869934082 244.9332427978516 26.7999382019043 244.9332427978516 L 36.66413879394531 244.9332427978516 M 41.66413879394531 249.9332427978516 L 26.7999382019043 249.9332427978516 C 22.50908851623535 249.9332427978516 18.3439884185791 249.0917816162109 14.42031383514404 247.4322662353516 C 10.63296413421631 245.8303833007812 7.232638835906982 243.5382080078125 4.313838481903076 240.619384765625 C 1.395013689994812 237.7005615234375 -0.8971613049507141 234.3002624511719 -2.499036312103271 230.5129089355469 C -4.158561229705811 226.5892333984375 -5.000011444091797 222.4241180419922 -5.000011444091797 218.1332702636719 L -5.000011444091797 109.7999649047852 C -5.000011444091797 105.5091171264648 -4.158561229705811 101.3439865112305 -2.499036312103271 97.42031097412109 C -0.8971613049507141 93.63296508789062 1.395013689994812 90.232666015625 4.313838481903076 87.31383514404297 C 7.232638835906982 84.39504241943359 10.63296413421631 82.10283660888672 14.42031383514404 80.50099182128906 C 18.3439884185791 78.84146118164062 22.50908851623535 78.00001525878906 26.7999382019043 78.00001525878906 L 41.66413879394531 78.00001525878906 L 41.66413879394531 249.9332427978516 Z" stroke="none" fill="#2b353e"/>
    </g>
    <path id="Pfad_6687" data-name="Pfad 6687" d="M236.763,76.384h46.149A5.187,5.187,0,0,0,288.1,71.2V5.188A5.187,5.187,0,0,0,282.913,0H236.763a5.188,5.188,0,0,0-5.188,5.188V40.842C215.041,47.078,136.119,79,117,126.8V288.73c.162,0,.318-.021.478-.024,19.9,47.17,97.695,78.643,114.1,84.83V409.19a5.189,5.189,0,0,0,5.188,5.188h46.149a5.188,5.188,0,0,0,5.186-5.188V343.181a5.186,5.186,0,0,0-5.186-5.186H236.763a5.188,5.188,0,0,0-5.188,5.186v2.047c-8.291-2.24-31.853-9.773-50.413-27.093-22.915-21.387-36.664-41.192-36.664-56.5,0-.081-.008-.151-.008-.231,0-.06.008-.116.008-.176V154.295c0-.228-.027-.446-.034-.672.015-.29.034-.574.034-.883,0-15.306,13.749-35.109,36.664-56.5,18.56-17.322,42.122-24.855,50.413-27.093V71.2a5.188,5.188,0,0,0,5.188,5.188" transform="translate(61.738)" fill="#505a63" stroke="#2b353e" stroke-width="5"/>
  </g>
</svg>
