<svg xmlns="http://www.w3.org/2000/svg" viewBox="0 0 170 170">
      <path d="M84.96,170h0c-13.08,0-23.69-10.6-23.7-23.68v-.02h47.4c.04,13.05-10.5,23.66-23.54,23.7-.05,0-.11,0-.16,0Z" fill="#b3bec9"/>
      <path d="M132.85,115.49c-.56-.56-.88-1.33-.88-2.13v-47.66c-.02-20.44-13.23-38.44-32.53-44.69-1.23-.4-2.05-1.55-2.05-2.84V7.9C97.41,3.56,93.92.03,89.58,0c-.04,0-.08,0-.11,0h-8.9c-4.34-.02-7.87,3.49-7.89,7.82,0,.03,0,.05,0,.08v10.28c0,1.29-.82,2.44-2.04,2.84-19.28,6.27-32.48,24.25-32.53,44.69v47.66c0,.8-.32,1.56-.88,2.12l-17.73,17.71c-1.89,1.89-.55,5.12,2.12,5.12h126.78c2.68,0,4.01-3.24,2.11-5.13-6.48-6.46-11.59-11.63-17.66-17.7Z" fill="#b3bec9"/>
</svg>