<svg xmlns="http://www.w3.org/2000/svg" width="66.2" height="66.2" viewBox="0 0 66.2 66.2">
  <g id="Zoller_Icon_Clock_1_" data-name="Zoller_Icon_Clock (1)" transform="translate(-0.15)">
    <path id="Pfad_6956" data-name="Pfad 6956" d="M33.25,0a33.1,33.1,0,1,0,33.1,33.055A33.16,33.16,0,0,0,33.25,0m-.156,59.451a25.907,25.907,0,1,1,18.331-7.643,25.864,25.864,0,0,1-18.331,7.643" fill="#b9c3cd"/>
    <path id="Pfad_6957" data-name="Pfad 6957" d="M90.713,39.976a3.062,3.062,0,0,0-4.408,0l-5.149,5.149V31.16a3.16,3.16,0,1,0-6.32,0V52.42a3.179,3.179,0,0,0,.9,2.458,3.062,3.062,0,0,0,4.408,0L90.674,44.345a2.926,2.926,0,0,0,.039-4.369Z" transform="translate(-45.546 -17.077)" fill="#b9c3cd"/>
  </g>
</svg>
