<svg id="Zoller_Icon_Exit" xmlns="http://www.w3.org/2000/svg" width="42.666" height="42.667" viewBox="0 0 42.666 42.667">
  <path id="Pfad_6892" data-name="Pfad 6892" d="M12.157,54.5a2.49,2.49,0,0,0-1.365-.5c-.72,0-1.237.5-1.255,1.423V59.6H0v4.4H9.537v4.119c.025.934.552,1.436,1.28,1.436a2.492,2.492,0,0,0,1.34-.464L22.781,61.78Z" transform="translate(0 -40.447)" fill="#b9c3cd"/>
  <path id="Pfad_6893" data-name="Pfad 6893" d="M59.761,0A2.761,2.761,0,0,0,57,2.761v9.1l2.259,1.554V3.378a1.127,1.127,0,0,1,1.129-1.119H81.041L68.447,5.845V36.821l12.592,3.587H60.388a1.127,1.127,0,0,1-1.129-1.129V29.269L57,30.823v9.083a2.761,2.761,0,0,0,2.761,2.761h25.6V0ZM72.749,22.029a1.968,1.968,0,0,1-.228.562,1.155,1.155,0,0,1-.334.371.658.658,0,0,1-.407.128.688.688,0,0,1-.4-.151,1.192,1.192,0,0,1-.329-.381,2.06,2.06,0,0,1-.216-.552,2.947,2.947,0,0,1,0-1.345,2.06,2.06,0,0,1,.216-.552,1.192,1.192,0,0,1,.321-.381.688.688,0,0,1,.4-.151.673.673,0,0,1,.407.125,1.192,1.192,0,0,1,.341.376,1.968,1.968,0,0,1,.228.562,2.874,2.874,0,0,1,0,1.39Z" transform="translate(-42.694)" fill="#b9c3cd"/>
</svg>
