<svg id="Komponente_120_5" data-name="Komponente 120 – 5" xmlns="http://www.w3.org/2000/svg" width="36.361" height="45.382" viewBox="0 0 36.361 45.382">
  <path id="Pfad_5628" data-name="Pfad 5628" d="M132.5,16.136V14.455l-3.586-.9a15.24,15.24,0,0,0-.728-2.745l2.577-2.521a7.143,7.143,0,0,0-.84-1.4l-3.474,1.065a13.727,13.727,0,0,0-2.017-2.017L125.5,2.465c-.448-.28-.952-.616-1.4-.84L121.578,4.2a9.484,9.484,0,0,0-2.745-.728L117.992,0h-1.681l-.9,3.586a15.24,15.24,0,0,0-2.745.728L110.2,1.681a7.144,7.144,0,0,0-1.4.84l1.065,3.474a13.726,13.726,0,0,0-2.017,2.017l-3.474-1.065c-.28.448-.616.952-.84,1.4l2.577,2.521a9.484,9.484,0,0,0-.728,2.745l-3.586.9v1.681l3.586.9a15.241,15.241,0,0,0,.728,2.745l-2.577,2.521a7.143,7.143,0,0,0,.84,1.4l3.474-1.065a13.726,13.726,0,0,0,2.017,2.017L108.8,28.182c.448.28.952.616,1.4.84l2.521-2.577a9.484,9.484,0,0,0,2.745.728l.9,3.586h1.681l.9-3.586a15.241,15.241,0,0,0,2.745-.728l2.521,2.577a7.144,7.144,0,0,0,1.4-.84l-1.065-3.474a13.727,13.727,0,0,0,2.017-2.017l3.474,1.065c.28-.448.616-.952.84-1.4L128.3,19.834a9.484,9.484,0,0,0,.728-2.745Zm-15.463,6.051a6.835,6.835,0,1,1,6.835-6.835h0A6.863,6.863,0,0,1,117.039,22.187Z" transform="translate(-101.8)" fill="#b9c3cd"/>
  <path id="Pfad_5629" data-name="Pfad 5629" d="M152.629,57.928a4.819,4.819,0,0,0-.056-.9,2.483,2.483,0,0,0-.168-.84l-3.7-.168a6.6,6.6,0,0,0-.616-1.065l1.681-3.25c-.448-.392-.9-.728-1.345-1.065l-2.745,2.521a4.019,4.019,0,0,0-1.177-.28L143.384,49.3a3.968,3.968,0,0,0-.84.056,2.047,2.047,0,0,0-.84.168l-.168,3.7a6.6,6.6,0,0,0-1.065.616l-3.362-1.681c-.392.448-.728.9-1.065,1.345l2.521,2.745a4.019,4.019,0,0,0-.28,1.177L134.7,58.544a4.529,4.529,0,0,0,.056.84,5.046,5.046,0,0,0,.168.9l3.642.168a6.6,6.6,0,0,0,.616,1.065L137.5,64.707a13.159,13.159,0,0,0,1.4,1.065l2.689-2.465a4.019,4.019,0,0,0,1.177.28l1.065,3.474a4.82,4.82,0,0,0,.9-.056,5.045,5.045,0,0,0,.9-.168l.168-3.642a6.6,6.6,0,0,0,1.064-.616l3.194,1.681c.392-.448.728-.9,1.065-1.345l-2.465-2.689a4.019,4.019,0,0,0,.28-1.177Zm-8.46,3.025a2.853,2.853,0,1,1,2.465-3.194h0A2.841,2.841,0,0,1,144.169,60.954Z" transform="translate(-116.267 -21.679)" fill="#b9c3cd"/>
</svg>
