<svg id="Zoller_Icon_Copyright" xmlns="http://www.w3.org/2000/svg" width="37.774" height="37.886" viewBox="0 0 37.774 37.886">
  <path id="Pfad_6894" data-name="Pfad 6894" d="M19.164,37.886a18.943,18.943,0,1,1,18.86-18.972A18.91,18.91,0,0,1,19.164,37.886Zm0-34.543A15.571,15.571,0,1,0,34.679,18.914,15.572,15.572,0,0,0,19.166,3.343Z" transform="translate(-0.25)" fill="#b9c3cd"/>
  <path id="Pfad_6895" data-name="Pfad 6895" d="M50.082,49.682a7.069,7.069,0,0,0,1.342,4.1c1.259,1.66,3.263,2.5,5.952,2.5s4.9-.845,6.218-2.509a6.8,6.8,0,0,0,1.382-3.644H60.2A2.382,2.382,0,0,1,57.5,52.2a2.47,2.47,0,0,1-2.717-2.578V39.582A2.412,2.412,0,0,1,57.5,37.059c1.959,0,2.57,1.016,2.694,2.021h4.774c-.131-1.547-1.063-6.091-7.47-6.091-7.214,0-7.421,5.812-7.421,6.476V49.682Z" transform="translate(-38.975 -25.638)" fill="#b9c3cd"/>
</svg>
