<svg xmlns="http://www.w3.org/2000/svg" viewBox="0 0 170 170">
  <path d="M157.2,0l-32.3,32.4c-23.6-17.8-56.1-17.8-79.6,0L12.8,0,0,12.8l32.5,32.5c-17.8,23.5-17.8,56.1,0,79.6L0,157.2l12.8,12.8,32.5-32.4c23.6,17.8,56.1,17.8,79.6,0l32.4,32.4,12.8-12.8-32.4-32.3c17.8-23.6,17.8-56.1,0-79.6l32.4-32.4L157.2,0ZM111.9,45.3h0c5,3.4,9.3,7.7,12.8,12.8h0c11,16.2,11,37.6,0,53.8h0c-3.4,5-7.7,9.4-12.8,12.8h0c-16.2,11-37.5,11-53.8,0h0c-5-3.4-9.4-7.7-12.8-12.8-11-16.2-11-37.6,0-53.8h0c3.4-5,7.7-9.4,12.8-12.8h0c16.2-11,37.6-11,53.8,0Z"/>
</svg>