<svg id="Zoller_Icon_Group" xmlns="http://www.w3.org/2000/svg" width="64.132" height="42.409" viewBox="0 0 64.132 42.409">
  <path id="Pfad_6822" data-name="Pfad 6822" d="M68.053,98.159c0-5.3-4.054-8.162-8.633-9.116,2-1.8,5.246-2.384,8.139-2.384h3.813c4.722,0,10.206,2.225,10.206,7.683v7.841H68.053Z" transform="translate(-37.009 -64.829)" fill="#b9c3cd"/>
  <path id="Pfad_6823" data-name="Pfad 6823" d="M129.325,28.78a6.325,6.325,0,1,0,6.295,6.355,6.325,6.325,0,0,0-6.295-6.355Z" transform="translate(-76.59 -28.78)" fill="#b9c3cd"/>
  <path id="Pfad_6824" data-name="Pfad 6824" d="M119.743,84.109c0-5.28-4.054-8.162-8.633-9.116,2-1.8,5.246-2.384,8.158-2.384h3.862c4.722,0,10.206,2.161,10.206,7.619v6l-13.578.064Z" transform="translate(-69.204 -56.078)" fill="#b9c3cd"/>
  <circle id="Ellipse_1303" data-name="Ellipse 1303" cx="6.291" cy="6.291" r="6.291" transform="translate(5.875 10.61)" fill="#b9c3cd"/>
  <path id="Pfad_6825" data-name="Pfad 6825" d="M14.023,100.221c4.722,0,10.206,2.225,10.206,7.683v7.754H0v-8.38c0-5.4,5.439-7.1,10.206-7.1h3.817Z" transform="translate(0 -73.25)" fill="#b9c3cd"/>
  <circle id="Ellipse_1304" data-name="Ellipse 1304" cx="6.291" cy="6.291" r="6.291" transform="translate(25.469 5.312)" fill="#b9c3cd"/>
</svg>
