<svg xmlns="http://www.w3.org/2000/svg" width="205.1" height="189.964" viewBox="0 0 205.1 189.964">
  <g id="Gruppe_4328" data-name="Gruppe 4328" transform="translate(-143.102 -522.947)">
    <g id="Zoller_Icon_Measure" transform="translate(222.202 497.347)">
      <path id="Pfad_6927" data-name="Pfad 6927" d="M75.007,69.181v-.593h0V46.649a1.993,1.993,0,0,0-2-2H39.653V25.6c-4.151,1.334-8.6,11.785-8.6,13.86,0,1.186-.074,3.928-.148,5.188H18.381c-.074-1.26-.148-4-.148-5.188,0-2.075-4.3-12.526-8.449-13.86V44.648H2a2.041,2.041,0,0,0-2,2V71.331s7.782,26.015,8.449,28.832,4.521,10.451,10.006,13.489V73.035l20.679.148V113.5c6.152-2.891,9.858-10.6,10.525-13.489.667-2.816,7.56-27.275,7.56-27.275h5.04v.074c0,2.224,2.816,4.076,6.448,4.076,3.484,0,6.374-1.853,6.448-4v-3.78h-.148Z" transform="translate(0 0)" fill="#b9c3cd"/>
      <path id="Pfad_6928" data-name="Pfad 6928" d="M151.952,57.9H110a1.993,1.993,0,0,0-2,2V74.947a1.993,1.993,0,0,0,2,2h36.688v-.074h5.262a1.993,1.993,0,0,0,2-2V59.827A1.977,1.977,0,0,0,151.952,57.9Z" transform="translate(-27.953 -8.36)" fill="#b9c3cd"/>
    </g>
    <g id="Zoller_Icon_Tool_Standard_1_" data-name="Zoller_Icon_Tool_Standard (1)" transform="translate(89.202 543)">
      <path id="Pfad_6929" data-name="Pfad 6929" d="M113.9,123a2.112,2.112,0,0,0,2.1-2.1v-3.5a2.112,2.112,0,0,0-2.1-2.1H56a2.112,2.112,0,0,0-2.1,2.1v3.5A2.112,2.112,0,0,0,56,123h2.4v4.2H56a2.112,2.112,0,0,0-2.1,2.1v3.5a2.112,2.112,0,0,0,2.1,2.1h57.9a2.112,2.112,0,0,0,2.1-2.1v-3.5a2.112,2.112,0,0,0-2.1-2.1h-2.4V123h2.4Z" fill="#b9c3cd"/>
      <path id="Pfad_6930" data-name="Pfad 6930" d="M102.6,94.4,96.8,48.6H73.1L67.3,94.4h35.3Z" fill="#b9c3cd"/>
      <rect id="Rechteck_4530" data-name="Rechteck 4530" width="35.6" height="14.5" transform="translate(67.2 97.7)" fill="#b9c3cd"/>
      <path id="Pfad_6931" data-name="Pfad 6931" d="M62.5,138.1s.9,28.8,2,30.8a3.991,3.991,0,0,0,3.3,1c5.2-.2,11.4-.2,11.4-.2v-8.3H91.3v8.4h10.6a4.771,4.771,0,0,0,3.4-1c1.5-1.4,2.2-30.9,2.2-30.9h-45Zm22.6,17.6a6.9,6.9,0,1,1,6.9-6.9,6.914,6.914,0,0,1-6.9,6.9Z" fill="#b9c3cd"/>
      <path id="Pfad_6932" data-name="Pfad 6932" d="M79.7,14.1c.5-.8.9-1.4,1.3-2.1.6-.9,1.2-1.9,1.7-2.7a35.861,35.861,0,0,0,3.4-6.6l.3-1.5L84.9,0,79,4.9a17.17,17.17,0,0,0,0,5.8c.4,1.4.6,2.6.8,3.4h-.1Z" fill="#b9c3cd"/>
      <path id="Pfad_6933" data-name="Pfad 6933" d="M87.9,3.2a54.623,54.623,0,0,1-3.5,7c-.5.8-1.1,1.8-1.7,2.7a34.375,34.375,0,0,0-2.9,4.9,16.228,16.228,0,0,0-.8,6.6,14.517,14.517,0,0,0,1.6,6.3c1.1-2.1,2.6-4.4,3.7-6.1.5-.8.8-1.3,1.1-1.8a9.223,9.223,0,0,1,.5-.8c1.3-2.1,4.2-6.9,5.3-10.4,0-.8.2-1.6.2-2.4a23.717,23.717,0,0,0-.3-4.6L88.2,2.3c0,.2-.2.5-.2.7h0Z" fill="#b9c3cd"/>
      <path id="Pfad_6934" data-name="Pfad 6934" d="M79.3,45.3c-.2-.9-.3-2-.5-3.3a16.441,16.441,0,0,1,.8-6.6,54.85,54.85,0,0,1,3-4.9,9.993,9.993,0,0,0,.8-1.4s1.9-2.9,2.5-3.9q.75-1.2,1.2-1.8a9.223,9.223,0,0,1,.5-.8c.5-.8,1.2-1.9,1.9-3.1a16.979,16.979,0,0,1,1.7,7.3,19.593,19.593,0,0,1-1.7,8.3c-.5.8-1,1.9-1.6,3.1-1.2,2.2-3.2,5.5-4.2,7.1H79.3Z" fill="#b9c3cd"/>
      <path id="Pfad_6935" data-name="Pfad 6935" d="M90.1,38c-.3.5-.5.9-.8,1.5-1.1,2-2.2,3.9-3.5,5.8H91a40.155,40.155,0,0,0-.2-4.9A9.577,9.577,0,0,0,90,38Z" fill="#b9c3cd"/>
    </g>
  </g>
</svg>
