<svg xmlns="http://www.w3.org/2000/svg" width="82.898" height="69" viewBox="0 0 82.898 69">
  <g id="Zoller_Icon_Multiple_Tools" transform="translate(0 -14.3)">
    <path id="Pfad_6958" data-name="Pfad 6958" d="M24.333,113.372a.855.855,0,0,0,.829-.829v-1.414a.855.855,0,0,0-.829-.829H.829a.855.855,0,0,0-.829.829v1.414a.855.855,0,0,0,.829.829H1.8v1.707H.829a.855.855,0,0,0-.829.829v1.414a.855.855,0,0,0,.829.829h23.5a.855.855,0,0,0,.829-.829v-1.414a.855.855,0,0,0-.829-.829h-.975v-1.707Z" transform="translate(0 -49.187)" fill="#b9c3cd"/>
    <path id="Pfad_6959" data-name="Pfad 6959" d="M25.436,73.379,23.1,54.8H13.441L11.1,73.379H25.436Z" transform="translate(-5.687 -20.751)" fill="#b9c3cd"/>
    <rect id="Rechteck_4532" data-name="Rechteck 4532" width="14.434" height="5.9" transform="translate(5.364 53.945)" fill="#b9c3cd"/>
    <path id="Pfad_6960" data-name="Pfad 6960" d="M7.1,129.2s.39,11.7.829,12.532c.146.244.634.439,1.365.439,2.146-.049,4.633-.049,4.633-.049v-3.365h4.925v3.413h4.291a1.834,1.834,0,0,0,1.365-.39c.634-.585.878-12.532.878-12.532H7.1Zm9.168,7.119a2.8,2.8,0,1,1,2.828-2.78,2.789,2.789,0,0,1-2.828,2.78h0Z" transform="translate(-3.638 -58.871)" fill="#b9c3cd"/>
    <path id="Pfad_6961" data-name="Pfad 6961" d="M20.927,20.005c.2-.293.341-.585.536-.878.244-.39.488-.78.683-1.073a14.146,14.146,0,0,0,1.365-2.682,2.448,2.448,0,0,0,.1-.585l-.634-.488-2.389,1.951a6.884,6.884,0,0,0,0,2.341c.146.585.244,1.073.293,1.365h0Z" transform="translate(-10.492 0)" fill="#b9c3cd"/>
    <path id="Pfad_6962" data-name="Pfad 6962" d="M24.4,16.744a18.362,18.362,0,0,1-1.414,2.828c-.2.341-.439.731-.683,1.122a15.869,15.869,0,0,0-1.17,2,7.132,7.132,0,0,0-.341,2.682,6.639,6.639,0,0,0,.634,2.584c.439-.829,1.073-1.8,1.512-2.487a7.156,7.156,0,0,0,.439-.731c0-.1.1-.2.2-.293a20.88,20.88,0,0,0,2.146-4.194,7.329,7.329,0,0,1,.1-.975,11.5,11.5,0,0,0-.1-1.853l-1.17-.927a.693.693,0,0,1-.1.293h0Z" transform="translate(-10.645 -1.127)" fill="#b9c3cd"/>
    <path id="Pfad_6963" data-name="Pfad 6963" d="M20.882,40.984a8.288,8.288,0,0,1-.2-1.365,7.132,7.132,0,0,1,.341-2.682,22.256,22.256,0,0,1,1.219-2c.146-.2.244-.39.341-.536,0,0,.78-1.17,1.024-1.609.2-.293.341-.536.488-.731,0-.1.1-.2.2-.293.2-.341.488-.78.78-1.268a7.854,7.854,0,0,1,.731,2.975,7.994,7.994,0,0,1-.683,3.365c-.2.341-.39.78-.634,1.268-.488.927-1.268,2.243-1.707,2.877h-1.9Z" transform="translate(-10.593 -8.3)" fill="#b9c3cd"/>
    <path id="Pfad_6964" data-name="Pfad 6964" d="M28.307,45.849l-.293.585A27.056,27.056,0,0,1,26.6,48.775h2.146a13.729,13.729,0,0,0-.1-2,8.141,8.141,0,0,0-.293-.975h0Z" transform="translate(-13.629 -16.14)" fill="#b9c3cd"/>
    <path id="Pfad_6965" data-name="Pfad 6965" d="M83.533,113.372a.855.855,0,0,0,.829-.829v-1.414a.855.855,0,0,0-.829-.829h-23.5a.855.855,0,0,0-.829.829v1.414a.855.855,0,0,0,.829.829H61v1.707h-.975a.855.855,0,0,0-.829.829v1.414a.855.855,0,0,0,.829.829h23.5a.855.855,0,0,0,.829-.829v-1.414a.855.855,0,0,0-.829-.829h-.975v-1.707Z" transform="translate(-30.332 -49.187)" fill="#b9c3cd"/>
    <path id="Pfad_6966" data-name="Pfad 6966" d="M84.688,73.379,82.347,54.8H72.741L70.4,73.379Z" transform="translate(-36.071 -20.751)" fill="#b9c3cd"/>
    <rect id="Rechteck_4533" data-name="Rechteck 4533" width="14.434" height="5.9" transform="translate(34.232 53.945)" fill="#b9c3cd"/>
    <path id="Pfad_6967" data-name="Pfad 6967" d="M66.3,129.2s.39,11.7.829,12.532c.146.244.634.439,1.365.439,2.146-.049,4.633-.049,4.633-.049v-3.365h4.925v3.413h4.291a1.834,1.834,0,0,0,1.365-.39c.634-.585.878-12.532.878-12.532H66.349Zm9.168,7.119a2.8,2.8,0,1,1,2.828-2.78,2.789,2.789,0,0,1-2.828,2.78Z" transform="translate(-33.97 -58.871)" fill="#b9c3cd"/>
    <path id="Pfad_6968" data-name="Pfad 6968" d="M80.127,20.005c.2-.293.341-.585.536-.878.244-.39.488-.78.683-1.073a14.146,14.146,0,0,0,1.365-2.682,2.448,2.448,0,0,0,.1-.585l-.634-.488-2.389,1.951a6.885,6.885,0,0,0,0,2.341c.146.585.244,1.073.293,1.365h0Z" transform="translate(-40.824 0)" fill="#b9c3cd"/>
    <path id="Pfad_6969" data-name="Pfad 6969" d="M83.6,16.744a18.363,18.363,0,0,1-1.414,2.828c-.2.341-.439.731-.683,1.122a15.87,15.87,0,0,0-1.17,2,7.132,7.132,0,0,0-.341,2.682,6.639,6.639,0,0,0,.634,2.584c.439-.829,1.073-1.8,1.512-2.487a7.156,7.156,0,0,0,.439-.731c0-.1.1-.2.2-.293a20.88,20.88,0,0,0,2.146-4.194,7.33,7.33,0,0,1,.1-.975,11.5,11.5,0,0,0-.1-1.853l-1.17-.927a.693.693,0,0,1-.1.293h0Z" transform="translate(-40.977 -1.127)" fill="#b9c3cd"/>
    <path id="Pfad_6970" data-name="Pfad 6970" d="M80.082,40.984a8.289,8.289,0,0,1-.2-1.365,7.132,7.132,0,0,1,.341-2.682,22.259,22.259,0,0,1,1.219-2c.146-.2.244-.39.341-.536,0,0,.78-1.17,1.024-1.609.2-.293.341-.536.488-.731,0-.1.1-.2.2-.293.2-.341.488-.78.78-1.268a7.853,7.853,0,0,1,.731,2.975,7.994,7.994,0,0,1-.683,3.365c-.2.341-.39.78-.634,1.268-.488.927-1.268,2.243-1.707,2.877h-1.9Z" transform="translate(-40.925 -8.3)" fill="#b9c3cd"/>
    <path id="Pfad_6971" data-name="Pfad 6971" d="M87.407,45.849l-.293.585A27.057,27.057,0,0,1,85.7,48.775h2.146a13.73,13.73,0,0,0-.1-2,8.142,8.142,0,0,0-.293-.975h0Z" transform="translate(-43.91 -16.14)" fill="#b9c3cd"/>
    <path id="Pfad_6972" data-name="Pfad 6972" d="M142.733,113.372a.855.855,0,0,0,.829-.829v-1.414a.855.855,0,0,0-.829-.829h-23.5a.855.855,0,0,0-.829.829v1.414a.855.855,0,0,0,.829.829h.975v1.707h-.975a.855.855,0,0,0-.829.829v1.414a.855.855,0,0,0,.829.829h23.5a.855.855,0,0,0,.829-.829v-1.414a.855.855,0,0,0-.829-.829h-.975v-1.707Z" transform="translate(-60.664 -49.187)" fill="#b9c3cd"/>
    <path id="Pfad_6973" data-name="Pfad 6973" d="M143.788,73.379,141.447,54.8h-9.606L129.5,73.379Z" transform="translate(-66.351 -20.751)" fill="#b9c3cd"/>
    <rect id="Rechteck_4534" data-name="Rechteck 4534" width="14.434" height="5.9" transform="translate(63.1 53.945)" fill="#b9c3cd"/>
    <path id="Pfad_6974" data-name="Pfad 6974" d="M125.5,129.2s.39,11.7.829,12.532c.146.244.634.439,1.365.439,2.146-.049,4.633-.049,4.633-.049v-3.365h4.925v3.413h4.291a1.834,1.834,0,0,0,1.365-.39c.634-.585.878-12.532.878-12.532H125.549Zm9.168,7.119a2.8,2.8,0,1,1,2.828-2.78,2.789,2.789,0,0,1-2.828,2.78Z" transform="translate(-64.302 -58.871)" fill="#b9c3cd"/>
    <path id="Pfad_6975" data-name="Pfad 6975" d="M139.327,20.005c.2-.293.341-.585.536-.878.244-.39.488-.78.683-1.073a14.145,14.145,0,0,0,1.365-2.682,2.447,2.447,0,0,0,.1-.585l-.634-.488-2.389,1.951a6.884,6.884,0,0,0,0,2.341c.146.585.244,1.073.293,1.365h0Z" transform="translate(-71.156 0)" fill="#b9c3cd"/>
    <path id="Pfad_6976" data-name="Pfad 6976" d="M142.8,16.744a18.361,18.361,0,0,1-1.414,2.828c-.2.341-.439.731-.683,1.122a15.867,15.867,0,0,0-1.17,2,7.132,7.132,0,0,0-.341,2.682,6.639,6.639,0,0,0,.634,2.584c.439-.829,1.073-1.8,1.512-2.487a7.158,7.158,0,0,0,.439-.731c0-.1.1-.2.2-.293a20.879,20.879,0,0,0,2.146-4.194,7.331,7.331,0,0,1,.1-.975,11.5,11.5,0,0,0-.1-1.853l-1.17-.927a.693.693,0,0,1-.1.293h0Z" transform="translate(-71.309 -1.127)" fill="#b9c3cd"/>
    <path id="Pfad_6977" data-name="Pfad 6977" d="M139.182,40.984a8.284,8.284,0,0,1-.2-1.365,7.132,7.132,0,0,1,.341-2.682,22.252,22.252,0,0,1,1.219-2c.146-.2.244-.39.341-.536,0,0,.78-1.17,1.024-1.609.2-.293.341-.536.488-.731,0-.1.1-.2.2-.293.2-.341.488-.78.78-1.268a7.854,7.854,0,0,1,.731,2.975,7.994,7.994,0,0,1-.683,3.365c-.2.341-.39.78-.634,1.268-.488.927-1.268,2.243-1.707,2.877h-1.9Z" transform="translate(-71.206 -8.3)" fill="#b9c3cd"/>
    <path id="Pfad_6978" data-name="Pfad 6978" d="M146.607,45.849l-.293.585a27.051,27.051,0,0,1-1.414,2.341h2.146a13.73,13.73,0,0,0-.1-2,8.141,8.141,0,0,0-.293-.975h0Z" transform="translate(-74.242 -16.14)" fill="#b9c3cd"/>
  </g>
</svg>
