<svg xmlns="http://www.w3.org/2000/svg" width="39.756" height="39.739" viewBox="0 0 39.756 39.739">
  <path id="Zoller_Icon_Home" d="M39.28,19.121l.028-.023L36.3,16.166,34.909,14.79a2.089,2.089,0,0,0-.192-.164L20.05.34h-.023L5.206,14.776a1.61,1.61,0,0,0-.18.155L2.217,17.7.758,19.1h0l-.11.126a1.943,1.943,0,0,0,0,2.76,1.99,1.99,0,0,0,2.786,0l2.475-2.432V40.079H16.444V30.714h7.094v9.365H34.16V19.57l2.306,2.283a1.992,1.992,0,0,0,2.788,0h0A1.943,1.943,0,0,0,39.28,19.121Z" transform="translate(-0.073 -0.34)" fill="#f0e600"/>
</svg>
