<svg xmlns="http://www.w3.org/2000/svg" width="59.02" height="66.2" viewBox="0 0 59.02 66.2">
  <path id="Zoller_Icon_Cost_Centers_1_" data-name="Zoller_Icon_Cost_Centers (1)" d="M68.243,42.328V37.044A3.012,3.012,0,0,0,66.9,34.75a3.079,3.079,0,0,0,1.34-2.27V27.2c0-.946-.631-1.9-2.025-2.8-4.319-2.769-14.237-3.921-22.633-2.706v-1.53a2.378,2.378,0,0,0-1.051-1.8,2.4,2.4,0,0,0,1.051-1.784V12.429a2.39,2.39,0,0,0-1.051-1.8,2.39,2.39,0,0,0,1.051-1.78V4.7c0-.74-.495-1.491-1.589-2.192C38.437.221,30.034-.663,23.266.528c-4.774.845-7.473,2.5-7.411,4.194V8.838a2.38,2.38,0,0,0,1.055,1.776,2.356,2.356,0,0,0-1.048,1.842v4.116a2.38,2.38,0,0,0,1.055,1.776,2.356,2.356,0,0,0-1.048,1.842V24.3a2.393,2.393,0,0,0,1.055,1.78,2.355,2.355,0,0,0-1.048,1.838v4.116a2.2,2.2,0,0,0,.829,1.581,16.468,16.468,0,0,0-4.727,4.455c-3.758,5.335-3.594,11.745.129,15.113h0l1.9,1.721a8.108,8.108,0,0,0,1.3.966,9.517,9.517,0,0,0,5.907,1.219A12.336,12.336,0,0,0,23.869,60.9c-.078-.07,1.375,1.429,1.375,1.429a12.36,12.36,0,0,0,2.06,1.7c6.433,4.256,15.779,2.052,20.837-4.907.245-.343.475-.689.7-1.04a48.676,48.676,0,0,0,9.973-.639c6.009-1.059,9.443-3.115,9.447-5.269V46.892a3.012,3.012,0,0,0-1.34-2.294A3.091,3.091,0,0,0,68.243,42.328ZM47.7,40.5l-1.6-1.643.058.058q-.389-.389-.779-.748a50.051,50.051,0,0,0,13.446-.389,24.584,24.584,0,0,0,6.254-1.85c1.476,2.157-1.472,4.467-7.562,5.541a40.919,40.919,0,0,1-8.567.53,12.377,12.377,0,0,0-1.25-1.5ZM32.9,31.642c-5.191.495-10.9-.288-13.5-1.947-1.347-.864-1.639-1.819-1.04-2.7,3.279,1.558,9.1,2.3,14.548,1.869C32.9,29.773,32.9,30.895,32.9,31.642ZM18.367,19.251c3.945,1.9,11.566,2.555,17.8,1.46a19.2,19.2,0,0,0,4.907-1.453c1.168,1.694-1.168,3.5-5.935,4.35-5.685,1-12.745.261-15.736-1.659C18.059,21.089,17.767,20.131,18.367,19.251Zm0-7.734c3.945,1.9,11.566,2.562,17.8,1.464a19.19,19.19,0,0,0,4.907-1.456c1.168,1.7-1.168,3.5-5.935,4.354-5.685,1-12.745.257-15.736-1.659-1.347-.864-1.639-1.819-1.04-2.7ZM24.3,1.19c5.689-1,12.749-.257,15.74,1.659s.779,4.284-4.895,5.3-12.757.261-15.736-1.659S18.608,2.2,24.3,1.19ZM14.6,52.433c-.136-.082-.257-.175-.389-.269a6.877,6.877,0,0,1-1.558-1.476c-2.259-2.979-2.076-7.734.759-11.756A13.789,13.789,0,0,1,15.9,36.249c.179-.148.366-.292.553-.432l.082-.062a5.9,5.9,0,0,1,.588-.389c.109-.074.218-.14.331-.206s.222-.136.335-.2.234-.132.354-.195.214-.113.323-.167.245-.117.37-.175l.319-.14.389-.152.319-.113.389-.129c.105-.035.214-.062.323-.093s.253-.074.389-.1l.343-.07c.218-.047.432-.082.65-.113.129,0,.257-.039.389-.051a3.12,3.12,0,0,1,.331,0h1.106l.319.027a2.9,2.9,0,0,1,.389.043c.14.019.2.027.3.047l.389.078c.093.023.191.043.284.07s.261.074.389.117l.261.086c.14.051.276.113.417.171.07.031.14.058.21.093.2.1.389.2.6.319a6.912,6.912,0,0,1,.643.44l.129.105c.164.136.323.273.471.417l.09.093c.16.164.315.331.456.506l.043.051a7.233,7.233,0,0,1,.424.6,17.418,17.418,0,0,0-6.418,5.331,15.818,15.818,0,0,0-3.041,11.328,8.178,8.178,0,0,1-5.549-.95Zm15.81,9.385a10.662,10.662,0,0,1-3.255-1.46,10.382,10.382,0,0,1-3.551-4c-.086-.175-.171-.354-.249-.534a4.027,4.027,0,0,1-.156-.389c-.047-.14-.136-.354-.195-.533s-.09-.269-.132-.389-.093-.347-.136-.526-.074-.292-.1-.44-.062-.347-.09-.518a12.749,12.749,0,0,1,.732-6.5,14.3,14.3,0,0,1,1.776-3.263,14.657,14.657,0,0,1,5.125-4.4c.218-.113.436-.214.654-.315l.16-.07c.2-.09.409-.175.619-.253l.14-.055c.222-.082.44-.156.662-.226l.109-.035c.21-.066.421-.121.631-.175l.265-.066c.175-.039.354-.078.53-.109l.23-.043c.2-.035.389-.066.611-.09h.148a11.971,11.971,0,0,1,4.587.335c.218.062.432.132.646.206l.144.047c.214.078.421.164.627.253l.156.066c.2.09.389.191.592.3l.164.082c.245.136.487.28.724.436.132.09.261.183.389.276l.191.14.027.023a10.3,10.3,0,0,1,2.364,2.562c.043.062.086.121.125.183a.988.988,0,0,1,.051.086c.121.2.234.389.339.6l.066.121c.109.218.21.44.3.662.051.121.1.241.144.362s.1.273.148.389a3.885,3.885,0,0,1,.117.389c.039.14.082.276.117.421s.062.249.09.389.062.3.09.444.043.245.062.389.043.319.058.479.027.23.035.347a3.55,3.55,0,0,0,.027.537,12.851,12.851,0,0,1-.631,4.377c-.023.074-.051.148-.078.222-.055.167-.117.331-.179.495l-.105.265c-.07.175-.148.347-.226.518-.027.062-.055.125-.086.187-.109.226-.222.452-.347.674-.035.066-.074.132-.113.2-.093.171-.195.343-.3.51l-.129.2c-.144.226-.3.452-.456.67s-.389.518-.6.779c-.105.125-.214.245-.323.366a13.719,13.719,0,0,1-13.333,4.393ZM57.483,51.284a39.435,39.435,0,0,1-6.355.565,14.6,14.6,0,0,0,.09-3.586,46.822,46.822,0,0,0,7.574-.67,24.428,24.428,0,0,0,6.254-1.85c1.48,2.153-1.464,4.49-7.558,5.541Zm0-19.7a41.69,41.69,0,0,1-13.91-.047,21.908,21.908,0,0,1-4.611-1.3h0a10.23,10.23,0,0,1-1.519-.779,4.673,4.673,0,0,1-1.207-1.04,2.037,2.037,0,0,1-.495-1.242h0a1.168,1.168,0,0,1,0-.2h0a2.22,2.22,0,0,1,.565-1.2l.023-.027a2.137,2.137,0,0,1,.16-.171l.031-.031c.055-.058.117-.113.179-.171h.023a6.6,6.6,0,0,1,.993-.7l.055-.031.253-.14.093-.047.261-.132.105-.051c.09-.043.179-.086.276-.125l.1-.047.308-.129h0c.358-.144.748-.284,1.168-.417l.14-.043.331-.1.179-.051.335-.093.191-.047.354-.09.187-.047L42.444,23l.109-.023c.315-.066.639-.132.974-.191l.132-.027c7.247-1.277,16.242-.331,20.051,2.111s1.024,5.44-6.223,6.717Z" transform="translate(-9.239 0.002)" fill="#b9c3cd"/>
</svg>
