<svg xmlns="http://www.w3.org/2000/svg" width="56.172" height="69.5" viewBox="0 0 56.172 69.5">
  <g id="Zoller_Icon_Stopwatch" transform="translate(-16.3)">
    <path id="Pfad_6938" data-name="Pfad 6938" d="M38.672,26.865l3.557-2.085a2.039,2.039,0,0,0,.736-2.821L40.88,18.4a2.039,2.039,0,0,0-2.821-.736L34.5,19.751a2.039,2.039,0,0,0-.736,2.821l2.085,3.557A1.988,1.988,0,0,0,38.672,26.865Z" transform="translate(-10.149 -10.267)" fill="#b9c3cd"/>
    <path id="Pfad_6939" data-name="Pfad 6939" d="M119.359,26.865,115.8,24.78a2.039,2.039,0,0,1-.736-2.821l2.085-3.557a2.039,2.039,0,0,1,2.821-.736l3.557,2.085a2.039,2.039,0,0,1,.736,2.821l-2.085,3.557A2,2,0,0,1,119.359,26.865Z" transform="translate(-58.211 -10.267)" fill="#b9c3cd"/>
    <path id="Pfad_6940" data-name="Pfad 6940" d="M85,50.1" transform="translate(-40.614 -29.618)" fill="#b9c3cd"/>
    <path id="Pfad_6941" data-name="Pfad 6941" d="M129.3,75.7" transform="translate(-66.803 -44.752)" fill="#b9c3cd"/>
    <g id="Gruppe_4327" data-name="Gruppe 4327" transform="translate(16.3 13.328)">
      <path id="Pfad_6942" data-name="Pfad 6942" d="M44.386,32.6A28.086,28.086,0,1,0,72.472,60.686,28.082,28.082,0,0,0,44.386,32.6ZM44.3,82.926A22.036,22.036,0,1,1,66.34,60.891,22.045,22.045,0,0,1,44.3,82.926Z" transform="translate(-16.3 -32.6)" fill="#b9c3cd"/>
      <path id="Pfad_6943" data-name="Pfad 6943" d="M74.059,65.876,58.279,74.993V56.8H58.2a18.394,18.394,0,1,0,15.862,9.076Z" transform="translate(-30.193 -46.906)" fill="#b9c3cd"/>
    </g>
    <path id="Pfad_6944" data-name="Pfad 6944" d="M81.055,0h-4.17A2.094,2.094,0,0,0,74.8,2.085v4.17A2.094,2.094,0,0,0,76.885,8.34h.531v2.576a.752.752,0,0,0,.777.777h1.554a.752.752,0,0,0,.777-.777V8.3h.491A2.094,2.094,0,0,0,83.1,6.214V2.044A2.024,2.024,0,0,0,81.055,0Z" transform="translate(-34.584)" fill="#b9c3cd"/>
  </g>
</svg>
